<svg xmlns:xlink="http://www.w3.org/1999/xlink" xmlns="http://www.w3.org/2000/svg" width="64" height="37" viewBox="0 0 64 37">
    <g fill="#000" fill-rule="evenodd">
      <path d="M62.742 30.97a4.138 4.138 0 0 1-4.133 4.134H5.094A4.138 4.138 0 0 1 .96 30.97V12.093a4.138 4.138 0 0 1 4.134-4.134h53.515a4.138 4.138 0 0 1 4.133 4.134V30.97zM6.24 6.668h3.946V5.642H6.24v1.026zm8.134 0h3.945V5.642h-3.945v1.026zm7.746 0h3.946V5.642H22.12v1.026zm16.004-3.982c0-.131.106-.237.238-.237h1.26c.132 0 .238.106.238.237v3.958a.238.238 0 0 1-.238.238h-1.26a.238.238 0 0 1-.238-.238V2.686zm4.622-1.396c.01-.185.159-.33.34-.33h7.33c.174 0 .319.13.337.3.132 1.229.256 4.227-1.437 5.507a.314.314 0 0 1-.186.053h-4.26l-.066-.006c-.389-.082-2.315-.73-2.058-5.524zm15.863 5.709h-8.147c1.434-1.632 1.412-4.295 1.246-5.842A1.297 1.297 0 0 0 50.416 0h-7.33c-.692 0-1.263.544-1.3 1.238-.177 3.322.642 4.955 1.472 5.761H40.76c.036-.113.06-.231.06-.355V2.686a1.2 1.2 0 0 0-1.198-1.197h-1.26a1.2 1.2 0 0 0-1.198 1.197v3.958c0 .124.024.242.06.355H27.026V5.162a.48.48 0 0 0-.48-.48H21.64a.48.48 0 0 0-.48.48V7h-1.88V5.162a.48.48 0 0 0-.48-.48h-4.906a.48.48 0 0 0-.48.48V7h-2.268V5.162a.48.48 0 0 0-.48-.48H5.76a.48.48 0 0 0-.48.48V7h-.186A5.1 5.1 0 0 0 0 12.093V30.97a5.1 5.1 0 0 0 5.094 5.094h53.515a5.1 5.1 0 0 0 5.093-5.094V12.093a5.1 5.1 0 0 0-5.093-5.094z"></path>
      <path d="M17.23 12.934a.687.687 0 0 1-.686.687.688.688 0 0 1 0-1.373c.378 0 .685.308.685.686m-.686 1.647h.002c.908 0 1.648-.739 1.648-1.647s-.74-1.646-1.648-1.646h-.002c-.909 0-1.648.738-1.648 1.646 0 .908.74 1.647 1.648 1.647M57.507 16.222a3.152 3.152 0 0 1-3.148 3.148H37.023a3.152 3.152 0 0 1-3.148-3.148V13.9a3.152 3.152 0 0 1 3.148-3.15h17.336a3.152 3.152 0 0 1 3.148 3.15v2.322zM54.359 9.79H37.023a4.113 4.113 0 0 0-4.108 4.109v2.322a4.113 4.113 0 0 0 4.108 4.108h17.336a4.113 4.113 0 0 0 4.108-4.108V13.9a4.113 4.113 0 0 0-4.108-4.11z"></path>
      <path d="M45.691 13.621a.687.687 0 1 1 0-1.375.687.687 0 0 1 0 1.375m0-2.333c-.908 0-1.647.738-1.647 1.646 0 .909.739 1.647 1.647 1.647s1.647-.738 1.647-1.647c0-.908-.739-1.646-1.647-1.646M57.507 29.097a3.152 3.152 0 0 1-3.148 3.149H37.023a3.152 3.152 0 0 1-3.148-3.149v-2.322a3.152 3.152 0 0 1 3.148-3.148h17.336a3.152 3.152 0 0 1 3.148 3.148v2.322zm-3.148-6.43H37.023a4.113 4.113 0 0 0-4.108 4.108v2.322a4.113 4.113 0 0 0 4.108 4.109h17.336a4.113 4.113 0 0 0 4.108-4.109v-2.322a4.113 4.113 0 0 0-4.108-4.108z"></path>
      <path d="M45.691 26.497a.687.687 0 1 1 0-1.375.687.687 0 0 1 0 1.375m0-2.333c-.908 0-1.647.738-1.647 1.646 0 .909.739 1.647 1.647 1.647s1.647-.738 1.647-1.647c0-.908-.739-1.646-1.647-1.646M27.377 28.693a3.152 3.152 0 0 1-3.148 3.148H8.59a3.152 3.152 0 0 1-3.148-3.148V13.467a3.151 3.151 0 0 1 3.148-3.147h15.638a3.151 3.151 0 0 1 3.148 3.147v15.226zM24.229 9.36H8.59a4.112 4.112 0 0 0-4.108 4.107v15.226a4.112 4.112 0 0 0 4.108 4.108h15.638a4.113 4.113 0 0 0 4.108-4.108V13.467a4.113 4.113 0 0 0-4.108-4.107z"></path>
      <path d="M24.592 26.331a3.152 3.152 0 0 1-3.148 3.148H11.58a3.152 3.152 0 0 1-3.15-3.148v-6.79a3.152 3.152 0 0 1 3.15-3.148h9.865a3.152 3.152 0 0 1 3.148 3.148v6.79zm-3.148-10.898H11.58a4.113 4.113 0 0 0-4.11 4.108v6.79a4.113 4.113 0 0 0 4.11 4.108h9.865a4.113 4.113 0 0 0 4.108-4.108v-6.79a4.113 4.113 0 0 0-4.108-4.108z"></path>
    </g>
  </svg>