<svg xmlns:xlink="http://www.w3.org/1999/xlink" xmlns="http://www.w3.org/2000/svg" width="39" height="49" viewBox="0 0 39 49">
    <g fill="#000" fill-rule="nonzero">
      <path d="M15.343 30.22c-1.149-.147-2.448-.308-3.746-.55-4.568-.872-5.11-1.683-5.619-8.72-.254-3.603-1.024-5.938-2.29-6.944a2.417 2.417 0 0 0-2.004-.51 2.322 2.322 0 0 0-1.507 1.416c-.261.67-.366 1.737.652 3.193 1.37 2.012 1.077 5.689.862 8.386a15.493 15.493 0 0 0-.079 2.971l.04.275c.28 1.906.815 5.636 6.375 5.636h.196v5.366l-.065.081-6.741 2.945c-.343.148-.613.43-.75.785-.138.354-.131.75.019 1.1.053.113.116.221.189.322a1.886 1.886 0 0 0-.116 2.207 1.77 1.77 0 0 0 2.027.737 1.84 1.84 0 0 0 1.26-1.79c0-.452-.165-.888-.463-1.22l4.62-2.014v1.557c.002.111.018.221.046.329a1.888 1.888 0 0 0-.142 2.59 1.767 1.767 0 0 0 2.517.193c.75-.65.854-1.8.235-2.582.067-.168.1-.349.098-.53V44.04l4.705 2.053a1.916 1.916 0 0 0-.306 1.033c-.006.888.603 1.655 1.45 1.828.848.172 1.695-.298 2.02-1.121a1.88 1.88 0 0 0-.69-2.25 1.376 1.376 0 0 0 0-1.04 1.378 1.378 0 0 0-.738-.778l-6.434-2.81v-5.85A32.457 32.457 0 0 1 17 34.915c2.134.094 3.544.161 3.987-1.127a2.063 2.063 0 0 0-.104-1.764c-.698-1.187-2.728-1.442-5.54-1.804zm4.724 3.24c-.196.564-1.116.544-3.021.457a33.453 33.453 0 0 0-6.082.154l-.49.06h-.489c-.274.04-.548.074-.803.094-.254.02-.326 0-.49 0h-.489c-4.887.215-5.331-2.77-5.592-4.642l-.046-.275c-.05-.913-.019-1.83.092-2.737.221-2.844.528-6.708-1.038-9.043-.587-.859-.77-1.63-.529-2.234.136-.365.42-.652.777-.785.43-.097.878.006 1.227.282.705.57 1.618 2.106 1.912 6.225.509 7.192 1.077 8.648 6.415 9.66 1.305.256 2.643.417 3.804.557 2.251.282 4.379.544 4.849 1.342.045.06.202.329-.007.906v-.02zM17.23 45.235v.047h-.04c-.203 0-.404.039-.593.114l-5.874-2.576a.478.478 0 0 0-.463.047.493.493 0 0 0-.222.416v2.086a1.667 1.667 0 0 0-.515-.087 1.987 1.987 0 0 0-.288 0v-2.153a.514.514 0 0 0-.215-.423.505.505 0 0 0-.274-.08.459.459 0 0 0-.19.04L2.462 45.3h-.21a1.693 1.693 0 0 0-.554.1.409.409 0 0 1 .105-.67l6.845-2.985a.52.52 0 0 0 .222-.195.431.431 0 0 1 .104-.114.508.508 0 0 0 .21-.416V35.32c.254 0 .534-.06.802-.094v6.038a.497.497 0 0 0 .3.463l6.728 2.938a.424.424 0 0 1 .216.228.44.44 0 0 1 0 .342zm-.072 2.73a.804.804 0 0 1-.594-.235.85.85 0 0 1-.248-.603.865.865 0 0 1 .842-.805c.1.003.2.023.293.06a.835.835 0 0 1 .53.938.815.815 0 0 1-.823.68v-.034zm-6.872-.838a.831.831 0 0 1-.819.77.831.831 0 0 1-.819-.77.832.832 0 0 1 .176-.496.826.826 0 0 1 .496-.316c.05-.003.1-.003.15 0a.823.823 0 0 1 .705.443.814.814 0 0 1 .111.369zm-7.217 0a.827.827 0 0 1-.816.839.827.827 0 0 1-.816-.839.813.813 0 0 1 .326-.67.754.754 0 0 1 .49-.135c.105 0 .21.02.307.06a.845.845 0 0 1 .509.745z"></path>
      <path d="M37.77 22.805h-7.02c.173-.219.268-.49.27-.77a1.272 1.272 0 0 0-1.27-1.268h-2.01v-7.123a1.33 1.33 0 0 0-.502-1.035l-3.88-3.06 1.553-6.811A1.953 1.953 0 0 0 23.668.3L22.505.036a1.615 1.615 0 0 0-1.389.352c-.402.34-.678.809-.78 1.327l-2.962 12.952a1.953 1.953 0 0 0 1.243 2.43l1.164.272c.417.09.853.01 1.21-.226.497-.33.844-.842.965-1.427l.76-3.32 2.407 1.899v6.486h-1.944a1.265 1.265 0 0 0-.998 2.038h-8.76a1.927 1.927 0 0 0-1.358.6 1.943 1.943 0 0 0-.533 1.391c0 1.122 1.21 1.74 2.03 1.74 5.606 0 13.824 0 15.794.04v21.746c0 .367.296.664.661.664h7.755a.662.662 0 0 0 .661-.664v-24.86a.665.665 0 0 0-.66-.67zm-14.59-1.042h2.439a.501.501 0 0 0 .502-.524v-7.196a.499.499 0 0 0-.192-.392l-3.213-2.536a.481.481 0 0 0-.469-.08.51.51 0 0 0-.317.36l-.933 4.102c-.07.324-.258.61-.528.803a.659.659 0 0 1-.457.1l-1.163-.273c-.403-.093-.628-.664-.496-1.241l2.949-12.978c.059-.29.212-.551.436-.744a.66.66 0 0 1 .549-.159l1.163.266c.404.093.628.664.496 1.241L22.32 9.648c-.03.23.082.457.284.571l4.02 3.173c.08.06.126.153.125.252v7.595c0 .275.222.498.496.498h2.526a.272.272 0 0 1 0 .544h-6.612a.272.272 0 0 1 0-.544l.02.026zm14.273 26.241h-7.094v-21.86a.499.499 0 0 0-.145-.351c-.199-.2-.238-.24-16.641-.213-.317 0-1.051-.272-1.051-.803a.941.941 0 0 1 .899-.976h24.032v24.203z"></path>
    </g>
  </svg>