<svg xmlns:xlink="http://www.w3.org/1999/xlink" xmlns="http://www.w3.org/2000/svg" width="45" height="60" viewBox="0 0 45 60">
    <g fill="#000" fill-rule="nonzero">
      <path d="M41.201 42.004h-.814c.132-.386.2-.79.198-1.198V28.42a3.664 3.664 0 0 0-3.656-3.66H7.779a3.664 3.664 0 0 0-3.656 3.66v12.403c-.001.407.066.812.198 1.198h-.79A3.532 3.532 0 0 0 0 45.537v7.6a3.535 3.535 0 0 0 3.53 3.533h2.724v1.959A1.377 1.377 0 0 0 7.624 60H8.88a1.377 1.377 0 0 0 1.37-1.371v-1.977h24.457v1.959a1.377 1.377 0 0 0 1.377 1.371h1.25c.758 0 1.374-.613 1.377-1.371v-1.959h2.52a3.53 3.53 0 0 0 3.53-3.533v-7.582a3.535 3.535 0 0 0-3.56-3.533zm2.633 11.133a2.636 2.636 0 0 1-2.633 2.635H3.531a2.632 2.632 0 0 1-2.633-2.635v-2.995A3.524 3.524 0 0 0 3.53 51.34h37.7a3.524 3.524 0 0 0 2.633-1.198l-.03 2.995zm-6.05 5.474a.473.473 0 0 1-.478.473h-1.251a.473.473 0 0 1-.479-.473v-1.959h2.208v1.959zm-28.43 0a.473.473 0 0 1-.473.473H7.624a.473.473 0 0 1-.473-.473v-1.959h2.202v1.959zm34.48-13.074v2.21a2.64 2.64 0 0 1-2.633 2.635H3.531a2.64 2.64 0 0 1-2.633-2.635v-2.21a2.695 2.695 0 0 1 1.34-2.282c.392-.23.838-.352 1.293-.353h37.7a2.682 2.682 0 0 1 2.633 2.635h-.03zm-38.79-4.713V28.42a2.766 2.766 0 0 1 2.735-2.76h29.15a2.766 2.766 0 0 1 2.758 2.76v12.403c.001.415-.093.825-.275 1.198H5.302a2.715 2.715 0 0 1-.257-1.198z"></path>
      <path d="M17.626 34.286h-6.68c-.786 0-1.422.65-1.422 1.45v3.727c-.008.391.138.769.405 1.049.267.28.633.439 1.016.44h6.681c.786-.003 1.422-.655 1.422-1.457v-3.758c0-.385-.15-.754-.417-1.026a1.407 1.407 0 0 0-1.005-.425zm.482 5.177a.494.494 0 0 1-.482.499h-6.68a.477.477 0 0 1-.344-.147.498.498 0 0 1-.139-.352v-3.726a.491.491 0 0 1 .14-.35.47.47 0 0 1 .342-.143h6.681c.267 0 .482.22.482.493v3.726zM32.866 34.286h-6.678c-.785 0-1.422.648-1.426 1.45v3.727c-.008.392.138.771.407 1.051.268.28.635.438 1.019.438h6.678c.785-.003 1.42-.655 1.42-1.457v-3.758c0-.385-.15-.754-.416-1.026a1.404 1.404 0 0 0-1.004-.425zm.482 5.177a.498.498 0 0 1-.139.352.476.476 0 0 1-.343.147h-6.678a.493.493 0 0 1-.488-.499v-3.726c0-.132.052-.258.143-.35a.476.476 0 0 1 .345-.143h6.678a.47.47 0 0 1 .343.143c.09.092.14.219.139.35v3.726zM19.643 18.789c.901.184 1.82.27 2.741.257 1.285 0 4.283-.137 4.283-1.443v-2.695c0-1.572-1.301-2.845-2.906-2.845h-.924V.449A.454.454 0 0 0 22.384 0a.46.46 0 0 0-.465.45v11.613h-.918c-1.605 0-2.906 1.273-2.906 2.845v2.695c0 .826 1.169 1.096 1.548 1.186zm1.358-5.828h2.76c1.098 0 1.988.872 1.988 1.947v2.653c-.129.21-1.224.599-3.377.599-2.154 0-3.206-.365-3.371-.569v-2.683c0-.519.21-1.016.586-1.381a2.01 2.01 0 0 1 1.414-.566z"></path>
    </g>
  </svg>