<svg xmlns:xlink="http://www.w3.org/1999/xlink" xmlns="http://www.w3.org/2000/svg" width="60" height="52" viewBox="0 0 60 52">
    <g fill="#000" fill-rule="evenodd">
      <path d="M58.61 44.344a1.98 1.98 0 0 1-1.429 1.897h-2.98a2.013 2.013 0 0 1-.459-.2c-.04-.024-.082-.046-.12-.073a2.016 2.016 0 0 1-.362-.334 2.006 2.006 0 0 1-.489-1.29V28.399a1.984 1.984 0 0 1 1.003-1.715 1.96 1.96 0 0 1 .984-.272h1.865c1.095 0 1.986.892 1.986 1.987v15.945zm-1.608 5.32c0 .28-.227.507-.507.507h-1.609a.508.508 0 0 1-.507-.508V47.25c.125.017.25.038.38.038h1.864c.13 0 .254-.021.379-.038v2.414zm-5.188-21.265v2.196a3.467 3.467 0 0 0-.915-.126H33.264v-12.17h17.074a2.482 2.482 0 0 1 2.48 2.48v5.424a2.924 2.924 0 0 0-1.004 2.196zm-.915 17.93H14.67c-.438 0-.845-.122-1.205-.32a2.923 2.923 0 0 0 .521-1.665V41.02c.22.045.45.069.684.069H50.9c.317 0 .623-.047.915-.127v3.382c0 .578.174 1.115.464 1.571-.397.261-.87.415-1.38.415zm-37.87-15.447V44.344c0 .385-.114.742-.305 1.047a1.991 1.991 0 0 1-.303.378c-.109.105-.232.194-.362.272l-.035.019a1.96 1.96 0 0 1-.423.18 1.97 1.97 0 0 1-.558.09H9.179a1.97 1.97 0 0 1-.558-.09 1.98 1.98 0 0 1-1.43-1.897V28.4a1.99 1.99 0 0 1 1.988-1.987h1.864a1.969 1.969 0 0 1 1.71.992c.171.294.277.631.277.995v2.483zm-1.607 18.781c0 .28-.227.508-.507.508H9.307a.508.508 0 0 1-.507-.508V47.25c.125.017.25.038.38.038h1.863c.13 0 .254-.021.38-.038v2.414zm1.33-28.884a2.482 2.482 0 0 1 2.48-2.48h17.074v12.17H14.671a3.45 3.45 0 0 0-.684.068V28.4c0-.984-.49-1.853-1.234-2.387v-5.233zM50.9 40.13H14.67a2.48 2.48 0 0 1-.684-.106V31.532c.22-.062.446-.106.684-.106H50.9c.324 0 .63.067.915.178v8.349a2.508 2.508 0 0 1-.915.178zm5.724-14.676h-1.865c-.346 0-.674.07-.983.181V20.78a3.441 3.441 0 0 0-3.437-3.437H15.232a3.441 3.441 0 0 0-3.437 3.437v4.786a2.9 2.9 0 0 0-.752-.11H9.179a2.948 2.948 0 0 0-2.945 2.944v15.945c0 1.14.658 2.119 1.608 2.608v2.711c0 .808.657 1.466 1.465 1.466h1.608c.808 0 1.465-.658 1.465-1.466v-2.712c.135-.07.266-.144.389-.234.547.36 1.2.57 1.902.57H50.9a3.46 3.46 0 0 0 2.027-.657c.154.123.319.23.495.321v2.712c0 .808.657 1.466 1.465 1.466h1.609c.808 0 1.464-.658 1.464-1.466v-2.712a2.935 2.935 0 0 0 1.608-2.607V28.399a2.947 2.947 0 0 0-2.944-2.944z"></path>
      <path d="M18.345 11.325c-.186.198-1.256.536-3.186.536s-3-.338-3.186-.536V8.727c0-1.028.837-1.865 1.865-1.865h2.642c1.029 0 1.865.837 1.865 1.865v2.598zm-1.865-5.42h-.842V.478A.479.479 0 0 0 15.16 0H.479A.479.479 0 0 0 0 .479v50.904a.479.479 0 0 0 .957 0V.957h13.724v4.947h-.843a2.826 2.826 0 0 0-2.822 2.823v2.642c0 .837 1.14 1.106 1.514 1.194.7.165 1.633.255 2.629.255 1.246 0 4.144-.14 4.144-1.45V8.728a2.826 2.826 0 0 0-2.823-2.823z"></path>
    </g>
  </svg>